<svg xmlns="http://www.w3.org/2000/svg" xmlns:xlink="http://www.w3.org/1999/xlink" id="svg" version="1.1" width="400" height="400" viewBox="0, 0, 400,400"><g id="svgg"><path id="path0" d="M154.688 25.026 C 131.699 38.798,89.576 64.001,61.080 81.032 C 21.968 104.410,8.996 112.530,8.151 114.164 C 6.455 117.443,6.546 146.006,8.263 149.626 C 10.869 155.118,-5.437 154.687,200.000 154.687 C 405.437 154.687,389.131 155.118,391.737 149.626 C 393.300 146.331,393.549 117.754,392.043 114.448 C 390.903 111.946,396.526 115.406,291.016 52.281 C 210.278 3.978,204.027 0.385,200.391 0.193 C 196.531 -0.011,195.991 0.282,154.688 25.026 M287.619 71.999 L 374.219 123.685 374.219 129.811 L 374.219 135.938 199.968 135.938 L 25.718 135.938 25.945 129.694 L 26.172 123.450 112.500 71.900 C 159.980 43.547,199.321 20.341,199.924 20.331 C 200.527 20.321,239.990 43.571,287.619 71.999 M189.453 54.586 C 170.128 60.149,159.069 81.451,165.352 101.011 C 175.995 134.149,224.005 134.149,234.648 101.011 C 243.678 72.898,217.883 46.401,189.453 54.586 M207.465 73.349 C 216.527 77.464,220.420 88.524,215.958 97.477 C 208.888 111.666,188.447 110.348,183.235 95.369 C 178.150 80.755,193.353 66.939,207.465 73.349 M36.250 172.188 L 33.594 174.844 33.594 253.768 L 33.594 332.692 35.968 335.066 C 39.212 338.310,40.196 338.409,66.406 338.133 C 91.547 337.869,92.326 337.730,94.411 333.155 C 95.073 331.702,95.313 310.416,95.313 253.010 L 95.313 174.844 92.656 172.187 L 90.000 169.531 64.453 169.531 L 38.906 169.531 36.250 172.188 M172.486 171.293 C 168.696 174.423,168.750 173.228,168.751 253.762 C 168.753 339.083,168.419 334.016,174.219 336.913 C 178.346 338.975,221.654 338.975,225.781 336.913 C 231.581 334.016,231.247 339.092,231.249 253.686 C 231.250 171.073,231.381 173.676,227.087 170.863 C 223.489 168.505,175.403 168.884,172.486 171.293 M307.344 172.188 L 304.688 174.844 304.688 253.010 C 304.688 310.416,304.927 331.702,305.589 333.155 C 307.674 337.730,308.453 337.869,333.594 338.133 C 359.804 338.409,360.788 338.310,364.032 335.066 L 366.406 332.692 366.406 253.768 L 366.406 174.844 363.750 172.187 L 361.094 169.531 335.547 169.531 L 310.000 169.531 307.344 172.188 M77.344 253.516 L 77.344 319.531 64.453 319.531 L 51.563 319.531 51.563 253.516 L 51.563 187.500 64.453 187.500 L 77.344 187.500 77.344 253.516 M212.500 253.516 L 212.500 319.531 200.000 319.531 L 187.500 319.531 187.500 253.516 L 187.500 187.500 200.000 187.500 L 212.500 187.500 212.500 253.516 M348.438 253.516 L 348.438 319.531 335.547 319.531 L 322.656 319.531 322.656 253.516 L 322.656 187.500 335.547 187.500 L 348.438 187.500 348.438 253.516 M33.116 353.107 C 25.126 356.349,27.013 369.150,35.692 370.584 C 39.586 371.228,360.414 371.228,364.308 370.584 C 371.565 369.385,374.530 360.808,369.595 355.286 L 367.316 352.734 201.041 352.586 C 109.589 352.504,34.023 352.738,33.116 353.107 M11.533 383.254 C 5.939 386.290,5.700 394.993,11.107 398.781 C 13.769 400.646,386.231 400.646,388.893 398.781 C 394.378 394.939,394.048 386.185,388.307 383.216 C 384.862 381.435,14.817 381.472,11.533 383.254 " stroke="none" fill="#cea159" fill-rule="evenodd"/></g></svg>