<svg id="svg" version="1.1" xmlns="http://www.w3.org/2000/svg" xmlns:xlink="http://www.w3.org/1999/xlink" width="400" height="400" viewBox="0, 0, 400,400"><g id="svgg"><path id="path0" d="M125.781 0.529 C 49.528 2.628,9.801 37.021,1.404 108.203 C -0.356 123.127,-0.028 280.905,1.791 294.127 C 10.539 357.715,41.671 389.244,104.518 398.164 C 125.549 401.149,277.784 400.441,300.685 397.251 C 358.904 389.144,391.645 353.610,398.572 291.016 C 400.045 277.704,400.070 121.704,398.601 108.594 C 391.609 46.189,360.126 11.808,301.684 2.758 C 286.546 0.414,179.309 -0.945,125.781 0.529 M267.615 36.738 C 331.566 39.854,355.403 58.533,361.806 110.547 C 363.083 120.925,363.689 258.157,362.535 275.736 C 358.974 329.990,340.286 353.840,296.085 360.538 C 269.782 364.524,134.046 364.512,104.871 360.522 C 62.082 354.668,41.650 331.621,36.670 283.594 C 35.507 272.380,35.598 132.279,36.777 118.750 C 41.830 60.757,64.769 39.154,123.828 36.769 C 144.726 35.925,250.459 35.903,267.615 36.738 M301.172 69.429 C 273.409 76.711,278.078 117.206,306.694 117.318 C 328.048 117.401,338.998 92.591,324.628 76.685 C 319.324 70.815,308.572 67.488,301.172 69.429 M186.328 97.716 C 107.496 108.541,70.142 200.822,119.151 263.672 C 169.019 327.624,271.998 309.914,297.630 232.978 C 321.683 160.780,261.316 87.418,186.328 97.716 M216.423 135.862 C 265.428 148.921,282.500 208.826,247.697 245.599 C 207.044 288.556,134.205 259.290,134.205 200.000 C 134.205 156.790,175.137 124.860,216.423 135.862 " stroke="none" fill="#000000" fill-rule="evenodd"></path></g></svg>