<svg xmlns="http://www.w3.org/2000/svg" xmlns:xlink="http://www.w3.org/1999/xlink" id="svg" width="400" height="400" viewBox="0, 0, 400,400"><g id="svgg"><path id="path0" d="M151.020 1.161 C 111.577 8.315,84.477 41.816,81.503 87.098 C 81.038 94.169,80.952 94.436,78.987 94.921 C 65.651 98.212,58.280 116.861,64.971 130.381 L 67.052 134.585 63.281 138.356 C 54.693 146.944,53.714 160.986,60.970 171.531 L 63.409 175.076 61.282 177.865 C 54.509 186.744,54.522 200.773,61.311 209.673 L 63.467 212.500 61.311 215.327 C 54.528 224.219,54.509 238.256,61.269 247.118 L 63.383 249.890 60.727 253.750 C 55.587 261.223,54.710 272.274,58.629 280.193 L 60.605 284.187 57.255 286.306 C 52.961 289.023,48.947 293.729,46.263 299.195 L 44.141 303.516 43.922 350.172 C 43.674 403.043,43.312 400.000,49.851 400.000 C 56.273 400.000,55.810 403.368,56.250 353.384 C 56.812 289.502,52.726 294.261,107.329 293.896 C 142.445 293.662,143.931 293.710,143.362 295.068 C 139.880 303.384,137.500 312.360,137.500 317.175 C 137.500 318.875,136.858 319.801,134.795 321.075 C 122.089 328.928,113.824 366.890,121.439 382.422 C 130.624 401.157,155.602 406.004,171.384 392.113 L 175.000 388.930 178.614 392.111 C 190.701 402.751,209.299 402.751,221.386 392.111 L 225.000 388.930 228.614 392.111 C 244.397 406.004,269.375 401.159,278.561 382.422 C 286.118 367.007,278.242 329.741,265.667 321.420 C 263.217 319.798,262.500 318.828,262.500 317.135 C 262.500 312.359,260.109 303.359,256.638 295.068 C 256.069 293.710,257.555 293.662,292.671 293.896 C 347.274 294.261,343.188 289.502,343.750 353.384 C 344.190 403.368,343.727 400.000,350.149 400.000 C 356.688 400.000,356.326 403.043,356.078 350.172 L 355.859 303.516 353.737 299.195 C 351.053 293.729,347.039 289.023,342.745 286.306 L 339.395 284.187 341.371 280.193 C 345.282 272.291,344.413 261.223,339.298 253.787 L 336.668 249.964 339.069 246.475 C 345.547 237.059,345.401 224.127,338.718 215.365 L 336.591 212.576 339.030 209.031 C 345.548 199.558,345.419 186.650,338.718 177.865 L 336.591 175.076 339.030 171.531 C 346.286 160.986,345.307 146.944,336.719 138.356 L 332.948 134.585 335.029 130.381 C 341.720 116.861,334.349 98.212,321.013 94.921 C 319.048 94.436,318.962 94.169,318.497 87.098 C 315.140 35.987,282.635 1.799,235.891 0.215 C 219.769 -0.332,213.247 1.554,203.740 9.514 L 200.000 12.645 196.289 9.590 C 185.144 0.415,170.335 -2.343,151.020 1.161 M181.363 15.874 C 188.574 19.324,191.734 23.095,193.059 29.831 C 195.204 40.730,204.780 40.811,206.918 29.948 C 209.047 19.124,218.189 13.172,232.623 13.211 C 274.173 13.324,302.487 43.988,305.402 92.029 C 306.170 104.678,307.622 106.985,314.844 107.030 C 316.894 107.043,321.054 110.054,322.660 112.688 C 327.246 120.208,322.218 129.420,312.754 130.839 C 301.673 132.501,303.906 143.152,315.501 143.947 C 333.803 145.201,336.743 165.679,319.004 168.339 C 309.899 169.704,309.899 180.296,319.004 181.661 C 334.416 183.972,334.416 203.528,319.004 205.839 C 309.899 207.204,309.899 217.796,319.004 219.161 C 334.416 221.472,334.416 241.028,319.004 243.339 C 309.899 244.704,309.899 255.296,319.004 256.661 C 331.513 258.537,334.852 273.007,324.216 279.255 C 320.949 281.174,242.550 282.258,236.463 280.468 C 231.725 279.074,228.545 265.728,232.617 264.323 C 256.194 256.188,271.509 242.887,282.206 221.255 C 289.150 207.212,289.278 202.313,282.763 200.000 C 273.348 196.658,273.150 178.244,282.496 175.168 C 286.292 173.918,287.500 172.368,287.500 168.750 C 287.500 165.132,286.292 163.582,282.496 162.332 C 273.326 159.313,273.326 140.687,282.496 137.668 C 286.711 136.280,287.501 134.900,287.491 128.952 C 287.422 90.801,233.533 66.287,203.711 90.840 L 200.000 93.895 196.289 90.840 C 166.467 66.287,112.578 90.801,112.509 128.952 C 112.499 134.900,113.289 136.280,117.504 137.668 C 122.511 139.316,123.828 141.884,123.828 150.000 C 123.828 158.116,122.511 160.684,117.504 162.332 C 113.708 163.582,112.500 165.132,112.500 168.750 C 112.500 172.368,113.708 173.918,117.504 175.168 C 126.850 178.244,126.652 196.658,117.237 200.000 C 110.722 202.313,110.850 207.212,117.794 221.255 C 128.491 242.887,143.806 256.188,167.383 264.323 C 171.455 265.728,168.275 279.074,163.537 280.468 C 157.450 282.258,79.051 281.174,75.784 279.255 C 65.148 273.007,68.487 258.537,80.996 256.661 C 90.101 255.296,90.101 244.704,80.996 243.339 C 65.584 241.028,65.584 221.472,80.996 219.161 C 90.101 217.796,90.101 207.204,80.996 205.839 C 65.584 203.528,65.584 183.972,80.996 181.661 C 90.101 180.296,90.101 169.704,80.996 168.339 C 63.257 165.679,66.197 145.201,84.499 143.947 C 96.094 143.152,98.327 132.501,87.246 130.839 C 77.782 129.420,72.754 120.208,77.340 112.688 C 78.946 110.054,83.106 107.043,85.156 107.030 C 92.378 106.985,93.830 104.678,94.598 92.029 C 96.772 56.206,112.863 29.868,139.453 18.612 C 153.774 12.550,171.935 11.364,181.363 15.874 M178.982 96.051 C 187.398 99.248,191.107 103.241,193.095 111.238 C 195.788 122.074,204.783 122.048,206.918 111.198 C 211.708 86.847,256.585 89.835,270.115 115.405 C 274.668 124.011,274.726 125.529,270.637 129.128 C 261.709 136.987,259.452 152.105,265.413 164.132 L 267.702 168.750 265.296 173.608 C 260.028 184.245,262.209 200.337,269.934 207.824 C 272.948 210.746,272.764 211.575,266.905 221.484 C 239.754 267.400,160.246 267.400,133.095 221.484 C 127.236 211.575,127.052 210.746,130.066 207.824 C 137.791 200.337,139.972 184.245,134.704 173.608 L 132.298 168.750 134.592 164.120 C 140.510 152.181,138.232 136.934,129.363 129.128 C 125.274 125.529,125.332 124.011,129.885 115.405 C 138.119 99.843,163.073 90.006,178.982 96.051 M151.563 151.563 C 146.418 156.707,150.557 162.500,159.375 162.500 C 166.912 162.500,168.750 161.275,168.750 156.250 C 168.750 151.225,166.912 150.000,159.375 150.000 C 154.167 150.000,152.865 150.260,151.563 151.563 M232.813 151.563 C 227.668 156.707,231.807 162.500,240.625 162.500 C 248.162 162.500,250.000 161.275,250.000 156.250 C 250.000 151.225,248.162 150.000,240.625 150.000 C 235.417 150.000,234.115 150.260,232.813 151.563 M164.063 201.563 C 161.853 203.772,162.012 208.294,164.424 211.844 C 176.318 229.347,223.682 229.347,235.576 211.844 C 241.677 202.866,232.354 195.151,225.138 203.207 C 219.803 209.163,212.046 211.821,200.000 211.821 C 187.954 211.821,180.197 209.163,174.862 203.207 C 171.468 199.418,166.902 198.723,164.063 201.563 M218.750 274.049 C 218.750 279.804,220.009 284.225,222.401 286.868 C 226.407 291.295,199.483 294.942,186.094 291.785 C 178.672 290.035,176.098 288.527,177.634 286.829 C 179.992 284.225,181.250 279.776,181.250 274.049 L 181.250 268.359 200.000 268.359 L 218.750 268.359 218.750 274.049 M165.465 296.045 C 175.293 309.338,220.678 309.791,233.742 296.727 C 237.239 293.230,239.162 293.499,242.568 297.964 C 248.231 305.389,251.331 325.326,247.714 331.062 C 241.394 341.083,227.232 337.395,225.411 325.254 C 224.046 316.149,213.454 316.149,212.089 325.254 C 209.778 340.666,190.222 340.666,187.911 325.254 C 186.546 316.149,175.954 316.149,174.589 325.254 C 172.768 337.395,158.606 341.083,152.286 331.062 C 147.491 323.457,153.833 297.504,161.215 294.525 C 163.639 293.547,163.612 293.538,165.465 296.045 M146.601 344.958 C 155.494 351.741,169.517 351.733,178.423 344.939 L 181.250 342.783 184.077 344.939 C 192.901 351.670,205.790 351.811,215.281 345.280 L 218.826 342.841 221.615 344.968 C 233.091 353.722,250.791 350.988,258.558 339.261 L 260.916 335.702 262.843 339.921 C 269.561 354.631,269.811 373.562,263.382 380.693 C 252.411 392.862,234.076 386.263,231.671 369.280 C 230.321 359.748,219.694 359.748,218.320 369.280 C 216.768 380.040,209.775 386.684,200.000 386.684 C 190.167 386.684,183.199 380.068,181.671 369.280 C 180.321 359.748,169.694 359.748,168.320 369.280 C 165.923 385.904,148.080 392.698,136.927 381.233 C 130.215 374.333,130.323 354.884,137.157 339.921 L 139.084 335.702 141.442 339.261 C 142.738 341.219,145.060 343.783,146.601 344.958 M82.813 357.813 C 81.337 359.288,81.250 360.417,81.250 378.125 C 81.250 399.563,81.375 400.000,87.500 400.000 C 93.625 400.000,93.750 399.563,93.750 378.125 C 93.750 356.687,93.625 356.250,87.500 356.250 C 85.417 356.250,83.854 356.771,82.813 357.813 M307.813 357.813 C 306.337 359.288,306.250 360.417,306.250 378.125 C 306.250 399.563,306.375 400.000,312.500 400.000 C 318.625 400.000,318.750 399.563,318.750 378.125 C 318.750 356.687,318.625 356.250,312.500 356.250 C 310.417 356.250,308.854 356.771,307.813 357.813 " stroke="none" fill="#cea159" fill-rule="evenodd"/></g></svg>