<svg xmlns="http://www.w3.org/2000/svg" xmlns:xlink="http://www.w3.org/1999/xlink" id="svg" width="400" height="400" viewBox="0, 0, 400,400"><g id="svgg"><path id="path0" d="M117.578 1.053 C 90.895 9.875,84.961 43.340,105.672 68.194 C 124.776 91.119,156.547 75.179,160.904 40.482 C 164.169 14.474,140.936 -6.670,117.578 1.053 M262.099 1.356 C 236.212 10.634,230.404 43.107,250.294 67.365 C 271.756 93.539,307.470 71.432,306.114 32.813 C 305.309 9.906,282.911 -6.103,262.099 1.356 M132.082 19.532 C 147.767 23.890,146.520 52.246,130.275 60.647 C 119.662 66.135,106.079 40.482,112.766 27.579 C 115.905 21.522,125.243 17.632,132.082 19.532 M281.194 21.657 C 292.231 28.389,290.613 48.357,278.182 58.817 C 270.275 65.470,259.310 55.961,256.238 39.787 C 253.397 24.830,268.458 13.889,281.194 21.657 M103.906 85.877 C 98.659 87.539,71.896 101.679,70.401 103.581 C 68.793 105.624,68.750 106.384,68.750 132.467 L 68.750 159.255 71.154 161.659 L 73.558 164.063 127.209 164.045 C 185.890 164.026,182.687 164.271,185.065 159.622 C 186.774 156.280,186.232 106.052,184.463 103.816 C 183.642 102.778,175.407 98.203,165.867 93.483 C 143.844 82.589,145.382 82.420,135.000 96.869 C 131.004 102.430,127.483 106.904,127.176 106.810 C 126.869 106.717,123.705 102.635,120.145 97.739 C 111.883 86.378,108.993 84.267,103.906 85.877 M233.169 93.624 C 211.591 104.440,213.727 100.580,213.425 129.297 C 213.139 156.472,213.351 158.784,216.413 161.846 L 218.630 164.063 272.193 164.063 L 325.757 164.063 328.308 161.784 L 330.859 159.505 331.059 133.073 C 331.210 113.084,331.020 106.165,330.278 104.688 C 329.555 103.248,324.654 100.395,311.637 93.836 L 293.976 84.937 290.585 86.023 C 287.523 87.004,286.506 88.074,280.120 97.034 C 276.230 102.493,272.821 106.975,272.545 106.995 C 272.269 107.015,268.984 102.799,265.244 97.626 C 254.221 82.376,255.332 82.514,233.169 93.624 M112.387 117.107 C 126.559 136.598,128.258 136.562,142.876 116.458 L 150.839 105.506 159.795 109.964 L 168.750 114.422 168.750 130.648 L 168.750 146.875 127.344 146.875 L 85.938 146.875 85.938 130.648 L 85.938 114.421 94.727 110.034 C 99.561 107.621,103.727 105.771,103.985 105.922 C 104.243 106.074,108.024 111.107,112.387 117.107 M257.110 116.439 C 271.096 135.674,273.736 136.097,284.858 120.881 C 287.756 116.916,291.477 111.832,293.126 109.582 L 296.125 105.493 305.094 109.957 L 314.063 114.422 314.063 130.648 L 314.063 146.875 272.656 146.875 L 231.250 146.875 231.250 130.648 L 231.250 114.421 240.039 109.990 C 244.873 107.553,248.897 105.539,248.981 105.514 C 249.065 105.489,252.723 110.405,257.110 116.439 M33.172 176.613 C 29.357 177.722,24.500 182.418,22.913 186.532 C 20.535 192.694,20.752 248.251,23.171 252.734 C 27.326 260.435,31.755 262.500,44.116 262.500 L 53.125 262.500 53.125 323.296 C 53.125 395.308,52.899 393.663,63.504 398.696 C 67.737 400.705,332.263 400.705,336.496 398.696 C 347.101 393.663,346.875 395.308,346.875 323.296 L 346.875 262.500 355.884 262.500 C 368.245 262.500,372.674 260.435,376.829 252.734 C 379.248 248.251,379.465 192.694,377.087 186.532 C 375.430 182.236,370.611 177.718,366.457 176.564 C 362.908 175.578,36.566 175.626,33.172 176.613 M361.328 219.141 L 361.328 244.922 348.438 245.321 C 340.294 245.574,334.914 246.080,333.829 246.695 C 329.474 249.163,329.687 245.544,329.688 316.971 L 329.688 382.813 200.412 382.813 L 71.136 382.813 70.920 316.812 L 70.703 250.811 68.151 248.257 L 65.598 245.703 52.330 245.442 L 39.063 245.181 39.063 219.073 L 39.063 192.965 200.195 193.162 L 361.328 193.359 361.328 219.141 M111.856 232.500 C 109.110 233.868,106.957 235.716,105.257 238.164 L 102.734 241.797 102.495 285.938 C 102.211 338.255,102.155 337.923,112.035 343.210 L 115.234 344.922 200.000 344.922 C 294.475 344.922,287.372 345.325,292.922 339.648 C 298.205 334.245,298.022 335.906,298.281 290.816 C 298.576 239.251,298.307 237.676,288.332 232.617 L 284.095 230.469 200.013 230.469 L 115.932 230.469 111.856 232.500 M280.469 287.500 L 280.469 327.344 200.000 327.344 L 119.531 327.344 119.531 287.500 L 119.531 247.656 200.000 247.656 L 280.469 247.656 280.469 287.500 " stroke="none" fill="#cda059" fill-rule="evenodd"/></g></svg>