<svg id="svg" version="1.1" xmlns="http://www.w3.org/2000/svg" xmlns:xlink="http://www.w3.org/1999/xlink" width="400" height="400" viewBox="0, 0, 400,400"><g id="svgg"><path id="path0" d="M262.140 35.244 C 221.474 41.169,192.411 78.710,194.017 123.242 L 194.475 135.938 191.964 135.933 C 183.253 135.919,155.035 130.411,140.504 125.890 C 100.903 113.567,71.876 94.966,33.867 57.555 L 23.593 47.443 20.017 58.385 C 8.318 94.182,13.367 122.270,36.263 148.778 C 46.537 160.672,45.572 161.531,28.272 155.885 C 10.522 150.091,10.218 150.257,13.275 164.098 C 20.445 196.557,35.586 215.965,65.238 230.702 L 73.800 234.957 59.442 235.643 C 42.197 236.466,42.412 236.334,45.202 244.326 C 52.165 264.280,73.905 282.096,104.047 292.552 L 115.599 296.559 104.745 302.981 C 77.038 319.372,55.901 325.318,18.149 327.339 C -5.307 328.594,-5.469 328.999,13.672 338.512 C 66.997 365.016,119.465 372.090,176.442 360.458 C 279.536 339.412,355.745 245.909,361.666 133.203 C 362.398 119.266,362.888 118.287,375.729 105.078 C 394.896 85.363,400.000 79.260,400.000 76.055 C 400.000 73.603,399.963 73.609,385.060 78.469 C 361.411 86.182,360.005 85.582,371.442 72.656 C 380.127 62.841,390.622 46.279,390.624 42.383 C 390.626 40.560,387.259 41.396,378.838 45.310 C 371.081 48.914,343.655 58.608,340.727 58.780 C 340.026 58.821,334.924 55.797,329.388 52.060 C 305.478 35.919,287.817 31.503,262.140 35.244 " stroke="none" fill="#000000" fill-rule="evenodd"></path></g></svg>